<?xml version="1.0" encoding="UTF-8"?>
<svg xmlns="http://www.w3.org/2000/svg" onmouseup="{ if(window.parent.document.onmouseup) window.parent.document.onmouseup(arguments[0]);}" viewBox="0 0 250.08 232.8"><g fill-rule="evenodd"><path data-cppathid="10000" fill="#336599" d="m94.32 56.4c-1.001 4.93-0.969 10.554-1.44 16.08-0.35899 4.217-0.547 8.253-0.96 12-0.108 0.986 0.471 2.459-0.72 3.12 1.757 1.696 4.138 2.438 6.24 3.6 6.144 3.395 12.852 6.646 19.44 9.84 4.37 2.119 8.871 4.037 13.2 6.24 21.098 10.735 43.064 21.938 64.56 32.641-16.073 4.668-32.959 8.531-49.92 12-17.012 3.479-33.806 7.883-50.64 11.279-5.751 1.899-13.004 3.084-19.44 4.8-5.567 1.485-11.252 2.672-17.04 3.841 0.606 1.567 2.258 2.369 3.36 3.359 6.855 6.159 14.327 12.599 21.36 18.96 5.651 5.112 11.919 10.479 17.76 15.84 3.499 3.213 6.876 6.361 10.56 9.601 0.959 0.843 2.963 1.572 2.64 3.36-3.951 0.23401-8.042 0.146-12.24 0.239-9.417 0.211-19.322-0.487-28.32 0.72101-0.634-0.328-3.079-0.791-4.32 0-6.088-4.943-11.659-10.699-17.28-16.32-1.707-1.707-3.261-3.271-5.04-5.04-5.338-5.308-11.881-10.442-17.28-16.08-2.557-2.67-5.243-5.967-8.16-8.64-1.135-1.041-2.521-2.014-3.6-3.12-0.94-0.965-2.341-2.07-2.4-3.601 11.219-2.297 22.582-4.227 33.84-6.479 5.676-1.137 11.431-1.834 17.04-3.12 8.058-1.848 16.057-2.821 24.48-4.32 0.606-0.10701 1.197-0.356 1.92-0.479 0.479-0.082001 1.157-0.381 1.68-0.48 5.838-1.104 11.544-2.07 17.52-3.12 2.18-0.383 4.295-0.97099 6.48-1.439 2.298-0.494 4.648-0.55 6.96-0.95999 2.247-0.399 4.507-1.024 6.72-1.44 15.437-2.898 31.547-5.155 46.8-8.88-1.68-1.648-3.991-2.294-6-3.36-3.837-2.035-7.618-4.378-11.76-6.479-2.01-1.02-3.799-2.276-5.761-3.36-9.85-5.443-19.863-10.511-30-15.84-1.991-1.046-3.793-2.255-5.76-3.36-1.982-1.113-4.191-1.803-6.24-2.88-9.564-5.028-19.888-10.373-29.28-16.32 1.823-4.946 2.989-10.59 4.32-16.08 0.654-2.696 1.443-5.342 2.16-7.92 0.752-2.705 1.417-5.332 1.92-7.92 0.327-0.718 1.659-0.426 2.641-0.484z"/><path data-cppathid="10001" fill="#33659b" d="m103.44 56.4c0.905 0.981 1.138 2.341 1.44 3.6 2.224 9.27 4.861 17.764 7.2 27.6 4.276 2.017 8.732 4.204 13.44 6 8.363 3.191 16.988 6.456 25.44 10.08 2.415 1.036 4.762 2.462 7.2 3.6 5.065 2.364 10.333 4.202 15.359 6.48 17.733 8.035 35.997 14.672 53.521 23.04 2.389 1.141 5.231 1.645 7.2 3.6-2.034 3.176-6.157 3.696-9.36 4.8-1.693 0.584-3.371 1.381-5.04 1.92-22.467 7.265-44.825 16.593-66.96 24.24 1.372 1.269 3.367 2.24 5.28 3.12 1.286 1.514 3.53 2.069 5.04 3.36 10.938 7.319 22.824 13.543 34.08 20.64 3.606 2.274 7.464 4.716 11.279 6.96 3.011 1.771 5.905 3.688 8.881 5.521 0.79501 0.489 1.809 0.68001 2.64 1.199 0.353 0.22099 0.54599 0.653 0.95999 0.95999 1.611 1.196 3.73 2.192 5.52 3.36 1.469 0.959 2.977 1.809 4.561 2.64 1.365 0.71701 3.632 1.369 3.84 3.36-14.084-0.319-26.479-0.11-40.56 0-18.187-12.502-36.147-25.412-54-38.4-5.149-3.745-9.946-7.811-15.121-11.76-0.667-0.509-1.844-0.865-1.92-1.92 8.77-3.232 17.657-6.051 26.88-9.12 5.232-1.741 10.924-3.404 16.56-5.28 2.425-0.80701 4.988-1.361 7.44-2.159 14.216-4.63 29.133-9.521 43.92-13.92-0.23401-0.759-0.858 0.028992-0.96001 0-0.444-0.13-0.215-0.556-0.48-0.72101-3.494-2.174-8.152-4.171-12.24-6-9.568-4.282-19.359-8.495-29.039-12.72-4.818-2.103-9.429-4.457-14.16-6.72-9.507-4.547-19.266-8.653-28.801-12.96-9.603-4.338-19.08-8.742-28.319-13.44-0.737-10.633-2.897-20.664-2.88-30.72 0.964 0.165 1.369-0.23 2.159-0.24z"/><path data-cppathid="10002" fill="#336599" d="m99.84 56.88c0.48901 8.638 2.269 17.97 2.88 26.4 0.095001 1.318 0.409 3.101-0.48 3.6 0.459 1.394 1.809 1.424 2.88 1.92 3.294 1.526 6.625 3.608 10.08 5.28 2.333 1.13 4.885 1.989 7.2 3.12 11.302 5.521 23.679 10.54 35.28 16.32 17.297 8.618 35.066 16.462 53.04 24.479 1.045 0.46701 2.417 0.88501 3.12 1.921-17.191 5.901-34.771 10.458-52.32 15.6-17.325 5.076-34.506 11.151-52.319 15.36 2.463 2.438 5.393 4.453 8.16 6.479 2.805 2.055 5.43 4.348 8.16 6.48 2.727 2.13 5.347 4.405 8.16 6.479 2.758 2.034 5.725 3.841 8.4 6 8.038 6.485 16 13.031 24.24 19.44 2.021 1.571 3.856 3.202 5.76 5.04 0.62801 0.605 1.894 0.76599 1.68 1.92-1.348 0.727-4.059 0.074005-5.76 0-6.505-0.286-12.505 0.117-18.24 0-2.979-0.061996-5.919 0.17999-8.88 0.23999-2.852 0.058014-5.779-0.439-8.64 0.23901-5.035-4.244-10.363-8.196-14.88-12.96-1.556-0.672-2.646-2.022-3.84-3.12-1.554-1.428-3.121-2.693-4.8-4.08-1.935-1.597-4.31-3.768-6.24-5.76-5.387-3.831-10.337-8.243-15.36-12.479-3.766-3.177-7.414-6.344-11.28-9.601-1.183-0.996-2.938-1.891-3.36-3.6 20.962-5.493 42.385-10.006 63.36-15.601 5.297-1.412 10.739-2.637 16.08-3.84 15.83-3.564 31.248-8.291 47.04-11.52-0.54199-1.313-2.006-1.446-3.12-1.92-7.695-3.274-15.609-7.796-23.28-11.521-8.9-4.322-17.524-8.942-26.399-13.2-8.968-4.302-18.149-8.356-26.88-12.96-6.594-3.477-13.264-6.494-19.92-9.84-2.144-1.078-4.362-2.107-6.24-3.6-0.070999-7.775 1.309-16.284 1.68-24.72 0.084-1.918-0.433-4.248 0.48-6 1.622 0.064999 2.895-0.373 4.558 0.005001z"/></g></svg>