<?xml version="1.0" encoding="UTF-8"?>
<svg xmlns="http://www.w3.org/2000/svg" onmouseup="{ if(window.parent.document.onmouseup) window.parent.document.onmouseup(arguments[0]);}" viewBox="0 0 744.09 1052.4"><g stroke-linejoin="round" stroke="#000" fill="none"><path data-cppathid="10000" stroke-width="10.857" d="m375.57 403.84c-18.89 0-35.277 7.07-44.444 17.511-8.5049-4.1718-18.814-6.6942-30.012-6.6941-28.819 0-52.234 16.256-52.234 36.263 0 1.4703 0.39307 2.8756 0.63855 4.3002-24.889 2.7571-43.997 17.591-43.997 35.643 0 17.886 18.741 32.69 43.294 35.643-0.49753 2.0082-0.89403 4.0557-0.89403 6.162 0 20.008 23.415 36.219 52.234 36.219 14.116 0 26.87-3.9145 36.27-10.241 9.5796 7.911 23.742 13.078 39.782 13.078 22.886 0 42.126-10.323 49.169-24.56 5.6375 1.4473 11.648 2.394 18.008 2.394 28.819 0 52.17-16.256 52.17-36.264 0-10.061-5.908-19.143-15.453-25.712 4.8189-5.4886 7.7905-11.859 7.7905-18.752 0-20.008-23.415-36.219-52.234-36.219-3.0338 0-5.9835 0.23096-8.876 0.57632-4.6537-16.704-25.799-29.348-51.213-29.348z"/><path data-cppathid="10001" stroke-width="4.799" d="m223.93 545.35a15.822 15.064 0 1 1 -31.644 0 15.822 15.064 0 1 1 31.644 0z"/><path data-cppathid="10002" stroke-width="5.403" d="m183.47 569.21a10.982 10.456 0 1 1 -21.963 0 10.982 10.456 0 1 1 21.963 0z"/></g></svg>